<svg width="270" height="235" viewBox="0 0 270 235" fill="none" xmlns="http://www.w3.org/2000/svg">
<path d="M22.7564 34.1077H17.7271C17.7285 33.7036 17.8856 33.3165 18.1641 33.0308C18.4426 32.7451 18.8199 32.5839 19.2137 32.5824H19.9151V10.6611H20.5934V32.5824H21.2704C21.6642 32.5837 22.0415 32.7449 22.3199 33.0307C22.5984 33.3164 22.7553 33.7036 22.7564 34.1077Z" fill="white"/>
<path opacity="0.07" d="M257.727 106.883V223.884C257.665 223.774 257.602 223.664 257.54 223.553C253.204 216 247.635 207.983 240.34 199.807C226.072 183.816 211.396 174.161 196.954 166.775C192.694 164.594 188.452 162.616 184.251 160.729C179.718 158.693 175.228 156.766 170.801 154.817C167.43 153.332 164.095 151.835 160.807 150.267C157.965 148.913 155.157 147.505 152.39 146.007C148.81 144.069 145.297 141.981 141.864 139.661C140.822 138.957 139.788 138.23 138.761 137.48C137.538 136.589 136.326 135.662 135.125 134.7C133.351 133.278 131.602 131.769 129.88 130.175C129.349 129.683 128.821 129.181 128.295 128.67C124.199 124.69 120.263 120.147 116.513 114.871C115.667 113.679 114.83 112.45 114.003 111.183C113.484 110.387 112.983 109.598 112.503 108.818C108.996 103.147 106.432 97.9146 104.202 93.131C103.808 92.2835 103.423 91.4496 103.046 90.6295C102.001 88.3583 101.009 86.1955 100.001 84.1411C98.3757 80.8263 96.7021 77.7912 94.6816 75.0459C91.3377 70.5042 87.0447 66.7404 80.43 63.7694C61.9422 55.46 43.4733 61.5014 28.5577 60.9351C26.9742 60.8769 25.4289 60.4199 24.0581 59.6045C22.6873 58.7891 21.533 57.6403 20.697 56.2592C19.7318 54.6557 18.991 53.1401 18.4615 51.6988C17.9182 50.2185 17.5987 48.8202 17.4887 47.5002C17.4089 46.5908 17.4368 45.6748 17.5719 44.7723C17.7815 43.4068 18.2558 42.0982 18.9666 40.9239C19.0022 40.8642 19.0385 40.8052 19.0747 40.7469C20.1187 39.067 21.6413 37.7577 23.4358 36.9966C23.8985 36.7995 24.3754 36.6399 24.8624 36.5194C26.264 36.1699 27.7239 36.1453 29.136 36.4472C30.548 36.7491 31.8768 37.3699 33.0257 38.2646C35.3244 40.0531 37.7315 41.6901 40.2325 43.1656C76.3771 64.4602 105.089 34.0128 148.457 47.8299C161.478 51.9791 171.276 58.6696 179.653 66.1208C180.069 66.4924 180.484 66.8655 180.895 67.2401C183.132 69.281 185.271 71.372 187.348 73.4771C187.865 74.0009 188.378 74.5253 188.888 75.0504C189.114 75.2839 189.34 75.5174 189.566 75.7508C190.108 76.3136 190.648 76.8759 191.186 77.4377C192.175 78.473 193.156 79.5048 194.129 80.5332L195.224 81.6877L195.866 82.3624C196.346 82.8666 196.826 83.3682 197.304 83.8672C209.74 96.8165 222.098 107.984 243.427 108.466C250.598 108.626 254.269 107.479 257.534 106.915L257.727 106.883Z" fill="url(#paint0_linear_1_647)"/>
<path opacity="0.09" d="M189.623 75.051H54.483C53.6181 75.051 52.917 75.7704 52.917 76.6577V159.124C52.917 160.011 53.6181 160.73 54.483 160.73H189.623C190.488 160.73 191.189 160.011 191.189 159.124V76.6577C191.189 75.7704 190.488 75.051 189.623 75.051Z" fill="#1B91FB"/>
<path opacity="0.26" d="M189.274 75.0504H54.8318C53.7743 75.0504 52.917 75.93 52.917 77.015V82.1815C52.917 83.2666 53.7743 84.1462 54.8318 84.1462H189.274C190.332 84.1462 191.189 83.2666 191.189 82.1815V77.015C191.189 75.93 190.332 75.0504 189.274 75.0504Z" fill="url(#paint1_linear_1_647)"/>
<path d="M59.591 81.6876C60.7849 81.6876 61.7528 80.752 61.7528 79.5979C61.7528 78.4438 60.7849 77.5082 59.591 77.5082C58.3971 77.5082 57.4292 78.4438 57.4292 79.5979C57.4292 80.752 58.3971 81.6876 59.591 81.6876Z" fill="#2A4C95"/>
<path d="M66.0246 81.6876C67.2185 81.6876 68.1864 80.752 68.1864 79.5979C68.1864 78.4438 67.2185 77.5082 66.0246 77.5082C64.8307 77.5082 63.8628 78.4438 63.8628 79.5979C63.8628 80.752 64.8307 81.6876 66.0246 81.6876Z" fill="#1B91FB"/>
<path d="M72.3063 81.6876C73.5002 81.6876 74.4681 80.752 74.4681 79.5979C74.4681 78.4438 73.5002 77.5082 72.3063 77.5082C71.1124 77.5082 70.1445 78.4438 70.1445 79.5979C70.1445 80.752 71.1124 81.6876 72.3063 81.6876Z" fill="white"/>
<path opacity="0.04" d="M197.309 83.2969V165.76C197.308 166.187 197.142 166.595 196.848 166.897C196.554 167.198 196.156 167.368 195.74 167.37H60.6029C60.1882 167.367 59.7913 167.196 59.4985 166.895C59.2058 166.594 59.041 166.186 59.04 165.76V160.73H189.623C190.037 160.728 190.433 160.559 190.726 160.258C191.019 159.958 191.184 159.552 191.186 159.127V81.6876H195.737C196.153 81.6876 196.553 81.8571 196.847 82.1588C197.142 82.4605 197.308 82.8698 197.309 83.2969Z" fill="#1B91FB"/>
<path d="M78.0922 90.439H66.4412C65.3295 90.439 64.4282 91.3636 64.4282 92.5043V103.53C64.4282 104.671 65.3295 105.595 66.4412 105.595H78.0922C79.204 105.595 80.1052 104.671 80.1052 103.53V92.5043C80.1052 91.3636 79.204 90.439 78.0922 90.439Z" fill="#2A4C95"/>
<path d="M102.187 90.439H90.536C89.4242 90.439 88.5229 91.3636 88.5229 92.5043V103.53C88.5229 104.671 89.4242 105.595 90.536 105.595H102.187C103.299 105.595 104.2 104.671 104.2 103.53V92.5043C104.2 91.3636 103.299 90.439 102.187 90.439Z" fill="white"/>
<path d="M126.282 90.439H114.631C113.519 90.439 112.618 91.3636 112.618 92.5043V103.53C112.618 104.671 113.519 105.595 114.631 105.595H126.282C127.393 105.595 128.295 104.671 128.295 103.53V92.5043C128.295 91.3636 127.393 90.439 126.282 90.439Z" fill="white"/>
<path d="M150.376 90.439H138.725C137.614 90.439 136.712 91.3636 136.712 92.5043V103.53C136.712 104.671 137.614 105.595 138.725 105.595H150.376C151.488 105.595 152.389 104.671 152.389 103.53V92.5043C152.389 91.3636 151.488 90.439 150.376 90.439Z" fill="#2A4C95"/>
<path d="M174.471 90.439H162.82C161.708 90.439 160.807 91.3636 160.807 92.5043V103.53C160.807 104.671 161.708 105.595 162.82 105.595H174.471C175.582 105.595 176.484 104.671 176.484 103.53V92.5043C176.484 91.3636 175.582 90.439 174.471 90.439Z" fill="white"/>
<path d="M78.0922 114.875H66.4412C65.3295 114.875 64.4282 115.799 64.4282 116.94V127.966C64.4282 129.106 65.3295 130.031 66.4412 130.031H78.0922C79.204 130.031 80.1052 129.106 80.1052 127.966V116.94C80.1052 115.799 79.204 114.875 78.0922 114.875Z" fill="white"/>
<path d="M102.187 114.875H90.536C89.4242 114.875 88.5229 115.799 88.5229 116.94V127.966C88.5229 129.106 89.4242 130.031 90.536 130.031H102.187C103.299 130.031 104.2 129.106 104.2 127.966V116.94C104.2 115.799 103.299 114.875 102.187 114.875Z" fill="white"/>
<path d="M128.295 114.875H112.618V130.031H128.295V114.875Z" fill="white"/>
<path d="M150.376 114.875H138.725C137.614 114.875 136.712 115.799 136.712 116.94V127.966C136.712 129.106 137.614 130.031 138.725 130.031H150.376C151.488 130.031 152.389 129.106 152.389 127.966V116.94C152.389 115.799 151.488 114.875 150.376 114.875Z" fill="white"/>
<path d="M174.471 114.875H162.82C161.708 114.875 160.807 115.799 160.807 116.94V127.966C160.807 129.106 161.708 130.031 162.82 130.031H174.471C175.582 130.031 176.484 129.106 176.484 127.966V116.94C176.484 115.799 175.582 114.875 174.471 114.875Z" fill="#2A4C95"/>
<path d="M78.0922 139.663H66.4412C65.3295 139.663 64.4282 140.588 64.4282 141.728V152.754C64.4282 153.895 65.3295 154.819 66.4412 154.819H78.0922C79.204 154.819 80.1052 153.895 80.1052 152.754V141.728C80.1052 140.588 79.204 139.663 78.0922 139.663Z" fill="#2A4C95"/>
<path d="M102.187 139.663H90.536C89.4242 139.663 88.5229 140.588 88.5229 141.728V152.754C88.5229 153.895 89.4242 154.819 90.536 154.819H102.187C103.299 154.819 104.2 153.895 104.2 152.754V141.728C104.2 140.588 103.299 139.663 102.187 139.663Z" fill="white"/>
<path d="M128.295 139.663H112.618V154.819H128.295V139.663Z" fill="#D4EEFF"/>
<path d="M150.376 139.663H138.725C137.614 139.663 136.712 140.588 136.712 141.728V152.754C136.712 153.895 137.614 154.819 138.725 154.819H150.376C151.488 154.819 152.389 153.895 152.389 152.754V141.728C152.389 140.588 151.488 139.663 150.376 139.663Z" fill="white"/>
<path d="M174.471 139.663H162.82C161.708 139.663 160.807 140.588 160.807 141.728V152.754C160.807 153.895 161.708 154.819 162.82 154.819H174.471C175.582 154.819 176.484 153.895 176.484 152.754V141.728C176.484 140.588 175.582 139.663 174.471 139.663Z" fill="white"/>
<path opacity="0.09" d="M184.844 86.2724C190.646 86.2724 195.349 81.4469 195.349 75.4943C195.349 69.5417 190.646 64.7161 184.844 64.7161C179.042 64.7161 174.339 69.5417 174.339 75.4943C174.339 81.4469 179.042 86.2724 184.844 86.2724Z" fill="#1B91FB"/>
<path d="M188.362 85.6021C194.164 85.6021 198.867 80.7766 198.867 74.824C198.867 68.8714 194.164 64.0458 188.362 64.0458C182.56 64.0458 177.857 68.8714 177.857 74.824C177.857 80.7766 182.56 85.6021 188.362 85.6021Z" fill="url(#paint2_linear_1_647)"/>
<path d="M188.15 75.764C188.319 75.5537 188.291 75.242 188.086 75.0677C187.881 74.8934 187.577 74.9226 187.407 75.1329L183.646 79.7889C183.476 79.9992 183.505 80.311 183.71 80.4852C183.915 80.6595 184.219 80.6303 184.389 80.42L188.15 75.764Z" fill="white"/>
<path d="M192.654 69.5827C192.771 69.4175 192.736 69.1855 192.575 69.0646C192.414 68.9437 192.188 68.9797 192.07 69.1449L188.834 73.6832C188.716 73.8484 188.751 74.0804 188.912 74.2013C189.073 74.3222 189.299 74.2862 189.417 74.121L192.654 69.5827Z" fill="white"/>
<path d="M188.374 76.3159C189.243 76.3159 189.948 75.5931 189.948 74.7014C189.948 73.8098 189.243 73.087 188.374 73.087C187.505 73.087 186.801 73.8098 186.801 74.7014C186.801 75.5931 187.505 76.3159 188.374 76.3159Z" fill="white"/>
<path d="M122.429 91.8205L122.421 91.8353V91.8398L122.413 91.8577C122.413 91.8603 122.413 91.8629 122.413 91.8654C122.413 91.8731 122.408 91.8821 122.406 91.8911C122.404 91.8965 122.402 91.9021 122.401 91.9078C122.401 91.9078 122.401 91.9007 122.404 91.8975C122.412 91.8657 122.425 91.8355 122.443 91.8083L122.429 91.8205ZM122.186 92.816V92.8102L122.195 92.7859C122.194 92.7955 122.191 92.8057 122.186 92.816ZM122.107 93.0084C122.117 92.9875 122.126 92.9661 122.134 92.9443C122.154 92.8975 122.17 92.8538 122.186 92.816C122.175 92.8417 122.164 92.8692 122.152 92.8987C122.141 92.9282 122.124 92.9693 122.107 93.0078V93.0084Z" fill="#504366"/>
<path d="M131.703 102.696V102.714C131.693 103.461 131.436 104.183 130.974 104.76C130.963 104.77 130.95 104.778 130.937 104.786C130.751 105.016 130.536 105.22 130.298 105.393C130.295 105.393 130.292 105.394 130.29 105.396C130.287 105.398 130.285 105.4 130.283 105.403C129.659 105.828 128.91 106.015 128.165 105.932C127.421 105.849 126.728 105.501 126.208 104.949V102.673C126.305 102.545 126.405 102.417 126.504 102.27C126.603 102.124 126.7 101.977 126.797 101.816C126.847 101.737 126.894 101.656 126.942 101.569C126.978 101.504 127.016 101.44 127.051 101.372C127.086 101.304 127.114 101.252 127.145 101.189C127.185 101.115 127.222 101.041 127.257 100.962C127.287 100.898 127.317 100.834 127.347 100.769C127.352 100.762 127.354 100.752 127.359 100.744C127.364 100.737 127.359 100.737 127.364 100.734C127.413 100.622 127.439 100.5 127.441 100.377L127.474 99.3359L127.583 95.8819L127.588 95.7081V93.29H123.222C123.149 93.1444 123.085 93.002 123.028 92.8641C122.991 92.775 122.956 92.6852 122.921 92.5986C122.854 92.4305 122.796 92.2779 122.747 92.1496C122.722 92.0855 122.697 92.0297 122.672 91.9816C122.662 91.9636 122.655 91.9456 122.645 91.9302C122.63 91.9012 122.613 91.8739 122.592 91.8488C122.584 91.8388 122.575 91.8293 122.566 91.8206C122.555 91.8087 122.542 91.7996 122.528 91.7938C122.514 91.788 122.498 91.7857 122.483 91.7872C122.475 91.7884 122.467 91.7913 122.46 91.7957C122.452 91.8001 122.446 91.8059 122.441 91.8129C122.419 91.842 122.405 91.8761 122.399 91.9123C122.391 91.9431 122.386 91.9764 122.379 92.0143C122.371 92.0521 122.369 92.0912 122.362 92.1368C122.357 92.1596 122.354 92.1828 122.352 92.206C122.344 92.2516 122.337 92.3003 122.327 92.3536C122.306 92.4646 122.277 92.5738 122.24 92.68C122.227 92.7108 122.215 92.7442 122.2 92.7897C122.175 92.8539 122.145 92.9276 122.11 93.0123C122.098 93.0399 122.085 93.0707 122.073 93.1015C122.045 93.1598 122.019 93.224 121.986 93.2939H119.393V100.243C119.392 100.363 119.414 100.483 119.455 100.595C119.455 100.6 119.455 100.603 119.46 100.608C119.465 100.613 119.468 100.628 119.473 100.639C119.483 100.664 119.495 100.694 119.51 100.728C119.567 100.861 119.644 101.031 119.749 101.23C119.774 101.279 119.799 101.327 119.826 101.378C119.883 101.478 119.945 101.587 120.014 101.699C120.039 101.742 120.066 101.785 120.096 101.827C120.103 101.841 120.111 101.853 120.121 101.866C120.172 101.952 120.232 102.041 120.294 102.13C120.304 102.146 120.315 102.162 120.327 102.177C120.377 102.248 120.429 102.32 120.481 102.391C120.534 102.462 120.591 102.537 120.65 102.61V105.153C120.174 105.588 119.586 105.873 118.957 105.974C118.328 106.075 117.683 105.988 117.1 105.724C116.518 105.46 116.022 105.029 115.671 104.483C115.32 103.937 115.13 103.3 115.123 102.646C115.123 102.605 115.123 102.564 115.123 102.529C115.123 102.47 115.128 102.417 115.131 102.373C115.131 102.336 115.133 102.3 115.137 102.263C115.155 102.094 115.184 101.926 115.225 101.761C115.23 101.737 115.237 101.713 115.244 101.689C115.397 101.132 115.686 100.625 116.083 100.214C116.357 99.9455 116.589 99.635 116.77 99.2936C116.912 99.0121 117.033 98.7203 117.133 98.4206C117.272 98.0017 117.381 97.573 117.459 97.1378C117.598 96.3681 117.646 95.6042 117.7 94.8134C117.802 93.2907 117.646 93.1297 117.737 92.487C118.041 90.3954 120.301 87.7169 123.218 87.7169C126.203 87.7169 128.379 90.194 129.078 92.1759C129.849 94.3669 128.605 95.1353 129.493 97.76C130.192 99.8343 131.271 100.247 131.599 101.763C131.604 101.783 131.609 101.806 131.614 101.827C131.648 101.995 131.671 102.164 131.683 102.335C131.689 102.384 131.693 102.433 131.693 102.483C131.693 102.498 131.693 102.516 131.693 102.534C131.7 102.579 131.7 102.638 131.703 102.696Z" fill="#274992"/>
<path d="M119.39 95.7857V98.3199C118.68 98.3199 118.105 97.7522 118.105 97.0531C118.105 96.8695 118.145 96.6881 118.223 96.5227C118.33 96.2995 118.496 96.1119 118.703 95.9816C118.909 95.8512 119.147 95.7833 119.39 95.7857ZM128.825 97.064C128.821 97.2762 128.763 97.4837 128.659 97.6669C128.555 97.8502 128.407 98.0032 128.229 98.1114C128.015 98.245 127.769 98.3135 127.519 98.309L127.561 95.7748C127.628 95.776 127.694 95.7817 127.76 95.7921C128.374 95.8973 128.835 96.4309 128.825 97.064Z" fill="#FCD1C4"/>
<path d="M127.585 93.2874V95.7068L127.579 95.88L127.471 99.3339L127.438 100.374C127.436 100.498 127.41 100.619 127.361 100.732C127.361 100.732 127.361 100.741 127.356 100.744C127.351 100.747 127.351 100.76 127.345 100.769L127.255 100.961C127.22 101.039 127.182 101.115 127.144 101.188C127.105 101.26 127.081 101.316 127.048 101.372C127.015 101.429 126.977 101.501 126.939 101.565C126.892 101.651 126.844 101.733 126.794 101.814C126.699 101.973 126.601 102.124 126.5 102.267C126.4 102.41 126.304 102.541 126.206 102.669C125.917 103.041 125.593 103.383 125.238 103.69C125.047 103.855 124.846 104.006 124.635 104.143C124.595 104.171 124.551 104.196 124.515 104.222C124.488 104.241 124.459 104.259 124.429 104.275C124.422 104.279 124.414 104.283 124.407 104.286C124.395 104.294 124.383 104.3 124.371 104.305C124.365 104.305 124.36 104.305 124.357 104.311C124.235 104.371 124.1 104.401 123.965 104.401H122.869C122.681 104.402 122.498 104.344 122.343 104.236C122.163 104.107 121.991 103.967 121.83 103.828C121.752 103.763 121.678 103.699 121.607 103.629C121.26 103.315 120.939 102.971 120.648 102.603C120.585 102.529 120.533 102.454 120.478 102.384C120.423 102.315 120.375 102.241 120.326 102.169C120.314 102.155 120.303 102.14 120.293 102.124C120.231 102.035 120.168 101.945 120.119 101.858C120.11 101.846 120.101 101.833 120.094 101.819C120.064 101.777 120.037 101.733 120.012 101.691C119.944 101.579 119.881 101.467 119.825 101.37C119.797 101.32 119.773 101.27 119.749 101.222C119.645 101.023 119.569 100.853 119.511 100.719C119.495 100.685 119.484 100.655 119.473 100.629C119.468 100.621 119.465 100.61 119.459 100.598C119.454 100.587 119.459 100.593 119.459 100.587C119.416 100.475 119.393 100.356 119.394 100.235V93.2874H121.986C122.019 93.2233 122.049 93.1591 122.074 93.095C122.087 93.0642 122.098 93.0308 122.112 93.0058C122.147 92.9218 122.174 92.8461 122.202 92.7845C122.216 92.7403 122.229 92.7037 122.24 92.6729C122.279 92.5678 122.308 92.4591 122.327 92.3484C122.338 92.2926 122.346 92.2451 122.352 92.2002C122.354 92.1767 122.357 92.1533 122.362 92.1303C122.371 92.0854 122.373 92.0437 122.379 92.0072C122.384 91.9706 122.392 91.9373 122.401 91.9065C122.406 91.87 122.42 91.8355 122.441 91.8058C122.452 91.7922 122.468 91.7833 122.485 91.7807C122.5 91.7793 122.516 91.7816 122.53 91.7874C122.544 91.7932 122.557 91.8023 122.567 91.8141L122.594 91.8423C122.613 91.8683 122.63 91.8953 122.646 91.9231C122.657 91.9398 122.662 91.9571 122.673 91.9738C122.695 92.0238 122.719 92.0796 122.747 92.1444C122.799 92.2727 122.853 92.4266 122.921 92.5934C122.954 92.68 122.989 92.7698 123.028 92.859C123.085 92.9962 123.148 93.1386 123.221 93.2842L127.585 93.2874Z" fill="#FCD1C4"/>
<path d="M126.206 102.673V107.316L122.371 117.019L120.648 106.925V102.607C120.94 102.975 121.26 103.319 121.606 103.633C121.677 103.697 121.752 103.766 121.829 103.832C121.991 103.973 122.163 104.108 122.344 104.24C122.499 104.349 122.682 104.407 122.869 104.406H123.965C124.101 104.406 124.236 104.376 124.359 104.316C124.362 104.314 124.366 104.311 124.371 104.309C124.383 104.304 124.396 104.298 124.408 104.291C124.415 104.288 124.422 104.284 124.427 104.278C124.458 104.264 124.487 104.247 124.515 104.228C124.552 104.202 124.594 104.177 124.636 104.148C124.847 104.011 125.048 103.859 125.238 103.694C125.592 103.386 125.916 103.045 126.206 102.673Z" fill="#FCD1C4"/>
<path d="M120.648 106.925L121.129 109.737C120.961 109.633 120.801 109.519 120.648 109.394V106.925ZM126.206 107.316V109.086C126.175 109.119 126.149 109.154 126.119 109.185C125.835 109.519 125.502 109.804 125.133 110.032L126.206 107.316Z" fill="#FCD1C4"/>
<path d="M124.333 104.278C124.327 104.283 124.32 104.287 124.313 104.29C124.302 104.296 124.29 104.302 124.278 104.307C124.294 104.297 124.315 104.288 124.333 104.278Z" fill="#EDB9A0"/>
<path d="M127.585 95.7062V95.8783H127.581L127.585 95.7062Z" fill="#FCD1C4"/>
<path d="M131.61 102.67V102.695C131.61 102.631 131.61 102.578 131.605 102.531C131.61 102.577 131.611 102.623 131.61 102.67Z" fill="#504366"/>
<path d="M123.804 104.405L120.647 105.151V102.606C120.939 102.975 121.26 103.319 121.607 103.633C121.678 103.697 121.751 103.761 121.83 103.831C121.991 103.971 122.163 104.108 122.343 104.239C122.498 104.348 122.681 104.406 122.869 104.405H123.804Z" fill="#F64E5D"/>
<path d="M115.01 209.968L114.882 213.537L112.229 213.71C112.573 213.059 112.757 212.33 112.764 211.589C112.772 210.987 112.737 210.357 112.595 209.963L115.01 209.968Z" fill="#F6F6FD"/>
<path d="M114.882 213.537L114.976 218.291L104.874 219.367C104.784 218.89 104.882 218.396 105.146 217.992C105.865 216.916 108.543 217.001 111.011 215.152C111.518 214.771 111.935 214.277 112.231 213.708L114.882 213.537Z" fill="#274992"/>
<path d="M112.758 211.778L114.929 212.295L115.012 209.968L112.596 209.961L112.758 211.778Z" fill="#FFC0A9"/>
<path d="M135.79 210.011L136.29 212.537L138.355 212.208L138.195 209.895L135.79 210.011Z" fill="#FFC0A9"/>
<path d="M138.734 213.922H136.5C136.392 213.113 136.291 212.538 136.291 212.538L138.353 212.207C138.439 212.787 138.566 213.361 138.734 213.922Z" fill="#F6F6FD"/>
<path d="M136.771 219.98V217.204C136.771 216.165 136.63 214.88 136.5 213.922H138.734C139.52 216.513 140.971 217.789 141.822 218.253C142.844 218.808 142.964 219.98 142.964 219.98H136.771Z" fill="#274992"/>
<path d="M128.447 136.91C128.447 136.91 132.394 138.94 135.655 179.125L138.796 210.022L135.113 210.356C135.113 210.356 131.868 198.504 128.505 183.126C127.255 177.422 122.299 159.231 121.436 152.241C121.436 152.241 119.599 167.33 118.239 181.028C117.35 189.983 116.914 200.353 115.723 210.578L111.823 210.467L110.573 177.855C110.573 177.855 107.509 141.313 112.184 137.158L128.447 136.91Z" fill="#2A4C95"/>
<path d="M114.712 142.456C114.712 142.456 115.112 143.064 114.764 143.295C114.416 143.526 114 143.349 114 143.349C114 143.349 114.188 144.062 113.825 144.081C113.463 144.1 110.662 142.225 110.209 143.295C109.757 144.365 109.965 145.828 108.035 145.258C106.433 144.783 101.46 136.151 99.7993 131.81L105.081 130.399L108.523 141.531C108.523 141.531 109.827 138.267 111.966 138.678C114.105 139.089 114.939 139.603 114.939 139.603C114.939 139.603 115.06 140.03 114.33 139.87C113.6 139.71 111.722 139.371 111.496 139.87C111.496 139.87 111.216 140.191 112.434 140.262C113.651 140.333 115.215 142.101 115.215 142.101C115.215 142.101 115.338 142.867 114.712 142.456Z" fill="#FCD1C4"/>
<path d="M143.893 131.073L139.217 127.411L139.3 127.279C139.44 127.057 139.113 126.59 138.905 126.433C137.444 125.326 132.121 121.385 131.76 121.662C131.343 121.983 128.601 136.964 128.601 136.964L112.164 137.248L111.289 123.44L105.081 130.395L99.8 131.806C99.4618 130.918 99.2617 130.212 99.2555 129.788C99.2236 127.537 107.774 114.352 110.105 109.904C110.281 109.567 110.544 109.285 110.866 109.092C111.187 108.898 111.555 108.799 111.928 108.806C113.361 108.835 115.501 108.877 115.775 108.877C116.192 108.877 116.887 108.306 118.905 108.877L120.53 106.227L120.649 106.92L122.372 117.014L126.207 107.312L126.677 106.12L128.295 108.914C128.295 108.914 131.806 107.914 131.702 110.197L135.251 110.918C135.46 110.961 135.659 111.046 135.836 111.168C136.013 111.29 136.164 111.447 136.282 111.63C137.568 113.635 141.901 120.465 144.659 125.644C144.66 125.651 145.946 128.754 143.893 131.073Z" fill="#1B91FB"/>
<path d="M143.869 131.024C142.09 133.035 136.16 141.619 132.481 143.643C132.139 143.828 131.749 143.899 131.366 143.844C130.982 143.79 130.626 143.612 130.346 143.338C129.617 142.629 128.506 141.583 128.291 141.574C128.019 141.563 126.603 141.638 126.14 141.661C126.045 141.666 125.953 141.695 125.872 141.747L124.547 142.591C124.547 142.591 123.7 142.765 124.026 142.176C124.352 141.587 125.422 140.971 125.422 140.971L126.883 140.609C126.963 140.59 127.036 140.549 127.094 140.49C127.152 140.43 127.193 140.355 127.212 140.273C127.237 140.139 127.195 140.022 126.922 140.089C126.373 140.222 125.844 140.526 125.2 140.666C124.929 140.726 124.096 141.533 123.724 141.899C123.652 141.973 123.561 142.026 123.461 142.053C123.362 142.079 123.257 142.077 123.159 142.047C122.992 141.992 122.878 141.855 123.087 141.543C123.504 140.916 124.735 140.059 124.735 140.059L126.621 139.537C126.621 139.537 126.857 139.028 126.256 139.188C125.727 139.331 124.647 139.735 124.403 139.83C124.37 139.842 124.34 139.861 124.315 139.886L122.957 141.252C122.957 141.252 122.267 141.385 122.488 140.891C122.709 140.396 123.936 139.351 123.936 139.351C123.936 139.351 124.755 138.765 125.727 138.615C125.747 138.612 125.765 138.603 125.78 138.59C125.794 138.576 125.805 138.558 125.809 138.538C125.814 138.518 125.813 138.497 125.806 138.478C125.8 138.459 125.787 138.442 125.771 138.43C125.517 138.245 124.771 138.154 124.483 138.357C123.709 138.903 122.552 139.713 122.319 139.338C122.086 138.964 123.034 138.365 123.034 138.365L124.67 137.362C124.775 137.298 124.892 137.258 125.013 137.242C125.586 137.253 127.795 137.37 128.889 138.444C130.154 139.688 130.819 140.358 131.341 140.198C131.862 140.037 135.044 134.845 135.044 134.845L139.215 127.413L143.869 131.024Z" fill="#FCD1C4"/>
<path d="M126.677 106.125L128.294 108.918L122.371 117.019L118.904 108.882L120.53 106.232L122.371 116.821L126.677 106.125Z" fill="#1B91FB"/>
<path d="M89.8005 127.869L89.3291 129.06V129.041L89.8005 127.869Z" fill="#28A4F7"/>
<path d="M24.8737 47.8844C24.8737 49.0496 24.4225 50.1672 23.6194 50.9911C22.8164 51.8151 21.7271 52.278 20.5914 52.278C19.4557 52.278 18.3664 51.8151 17.5633 50.9911C16.7603 50.1672 16.3091 49.0496 16.3091 47.8844C16.3091 47.7561 16.3145 47.6278 16.3253 47.4995C16.4194 46.4055 16.9095 45.3873 17.6989 44.6457C18.4884 43.904 19.52 43.4926 20.5905 43.4926C21.6609 43.4926 22.6925 43.904 23.482 44.6457C24.2714 45.3873 24.7615 46.4055 24.8556 47.4995C24.8677 47.6261 24.8737 47.7544 24.8737 47.8844Z" fill="url(#paint3_linear_1_647)"/>
<path d="M27.4066 47.4989H24.0601H16.427H13.0805C12.952 47.4989 12.8253 47.4674 12.711 47.407C12.5967 47.3466 12.4981 47.2592 12.4234 47.1518C12.3487 47.0445 12.3 46.9204 12.2814 46.7899C12.2629 46.6594 12.2749 46.5262 12.3166 46.4014L15.9425 35.5547L16.2001 34.785C16.2511 34.6314 16.3376 34.4929 16.4523 34.3811C16.5669 34.2694 16.7063 34.1879 16.8584 34.1436C16.9446 34.1188 17.0338 34.1063 17.1234 34.1064H23.3612C23.5649 34.1063 23.7634 34.1715 23.9291 34.293C24.0948 34.4144 24.2193 34.586 24.2852 34.7837L24.3221 34.8947L24.8635 36.5123L28.1693 46.3995C28.2112 46.5243 28.2234 46.6575 28.205 46.7881C28.1866 46.9187 28.1381 47.043 28.0635 47.1505C27.989 47.258 27.8904 47.3457 27.7762 47.4063C27.6619 47.4669 27.5352 47.4986 27.4066 47.4989Z" fill="#1B91FB"/>
<path d="M20.5928 10.6611H19.9146V32.6632H20.5928V10.6611Z" fill="#1B91FB"/>
<path d="M22.7564 34.1077H17.7271C17.7285 33.7036 17.8856 33.3165 18.1641 33.0308C18.4426 32.7451 18.8199 32.5839 19.2137 32.5824H21.2673C21.6617 32.5829 22.0398 32.7437 22.3188 33.0295C22.5979 33.3154 22.7553 33.7031 22.7564 34.1077Z" fill="#1B91FB"/>
<path d="M27.4066 47.4989H24.0601H23.3831C23.6131 47.1481 24.1795 47.0153 24.7097 46.6773C24.9054 46.5548 25.0825 46.4035 25.2354 46.2283C26.6733 44.5607 26.0281 39.9855 23.4381 36.9921C23.1656 36.6757 22.8715 36.3797 22.5579 36.1063C22.0583 35.6669 21.5065 35.2943 20.9156 34.9973C20.6093 34.8447 18.8526 33.9987 16.8608 34.1455C16.9471 34.1208 17.0363 34.1083 17.1259 34.1083H23.3637C23.5673 34.1082 23.7659 34.1734 23.9316 34.2949C24.0973 34.4164 24.2218 34.588 24.2877 34.7857L24.3246 34.8966L24.866 36.5142L28.1718 46.4015C28.2133 46.5263 28.2253 46.6596 28.2066 46.7901C28.1879 46.9207 28.1391 47.0448 28.0643 47.1521C27.9894 47.2594 27.8907 47.3469 27.7763 47.4072C27.662 47.4675 27.5352 47.499 27.4066 47.4989Z" fill="#2A4C95"/>
<defs>
<linearGradient id="paint0_linear_1_647" x1="194618" y1="-62086.1" x2="1.04682e+06" y2="817887" gradientUnits="userSpaceOnUse">
<stop stop-color="#1B91FB"/>
<stop offset="0.13" stop-color="#49A7FC"/>
<stop offset="0.29" stop-color="#80C2FD"/>
<stop offset="0.46" stop-color="#ADD8FE"/>
<stop offset="0.62" stop-color="#D1E9FE"/>
<stop offset="0.76" stop-color="#EAF5FF"/>
<stop offset="0.89" stop-color="#FAFCFF"/>
<stop offset="1" stop-color="white"/>
</linearGradient>
<linearGradient id="paint1_linear_1_647" x1="313.788" y1="79.598" x2="-55.7569" y2="79.598" gradientUnits="userSpaceOnUse">
<stop stop-color="white"/>
<stop offset="0.11" stop-color="#FAFCFF"/>
<stop offset="0.24" stop-color="#EAF5FF"/>
<stop offset="0.38" stop-color="#D1E9FE"/>
<stop offset="0.54" stop-color="#ADD8FE"/>
<stop offset="0.71" stop-color="#80C2FD"/>
<stop offset="0.87" stop-color="#49A7FC"/>
<stop offset="1" stop-color="#1B91FB"/>
</linearGradient>
<linearGradient id="paint2_linear_1_647" x1="177.857" y1="74.824" x2="198.867" y2="74.824" gradientUnits="userSpaceOnUse">
<stop stop-color="#FF851A"/>
<stop offset="0.4" stop-color="#FF9A23"/>
<stop offset="1" stop-color="#FFB52F"/>
</linearGradient>
<linearGradient id="paint3_linear_1_647" x1="6018.74" y1="2927.82" x2="6018.74" y2="6284.62" gradientUnits="userSpaceOnUse">
<stop stop-color="#FF851A"/>
<stop offset="0.4" stop-color="#FF9A23"/>
<stop offset="1" stop-color="#FFB52F"/>
</linearGradient>
</defs>
</svg>
